<svg width="56" height="56" viewBox="0 0 56 56" fill="none" xmlns="http://www.w3.org/2000/svg">
<g id="EnvelopeSimple">
<path id="Vector" d="M49 10.5H7C6.53587 10.5 6.09075 10.6844 5.76256 11.0126C5.43437 11.3408 5.25 11.7859 5.25 12.25V42C5.25 42.9283 5.61875 43.8185 6.27513 44.4749C6.9315 45.1313 7.82174 45.5 8.75 45.5H47.25C48.1783 45.5 49.0685 45.1313 49.7249 44.4749C50.3813 43.8185 50.75 42.9283 50.75 42V12.25C50.75 11.7859 50.5656 11.3408 50.2374 11.0126C49.9092 10.6844 49.4641 10.5 49 10.5ZM44.5003 14L28 29.1266L11.4997 14H44.5003ZM47.25 42H8.75V16.2291L26.8166 32.7906C27.1394 33.087 27.5617 33.2514 28 33.2514C28.4383 33.2514 28.8606 33.087 29.1834 32.7906L47.25 16.2291V42Z" fill="black"/>
</g>
</svg>
