<svg width="56" height="56" viewBox="0 0 56 56" fill="none" xmlns="http://www.w3.org/2000/svg">
<g id="Phone">
<path id="Vector" d="M48.6434 34.6632L38.3381 30.0454L38.3097 30.0322C37.7747 29.8034 37.1911 29.7116 36.6117 29.7651C36.0323 29.8185 35.4753 30.0156 34.9913 30.3385C34.9343 30.3761 34.8795 30.417 34.8272 30.461L29.5028 35C26.1297 33.3616 22.6472 29.9054 21.0088 26.576L25.5544 21.1707C25.5981 21.116 25.6397 21.0613 25.6791 21.0022C25.995 20.5195 26.1867 19.9661 26.2371 19.3913C26.2874 18.8165 26.1949 18.2382 25.9678 17.7079V17.6816L21.3369 7.3588C21.0366 6.66594 20.5203 6.08877 19.8651 5.71344C19.2099 5.33812 18.4508 5.18477 17.7013 5.2763C14.7371 5.66634 12.0163 7.12204 10.047 9.3715C8.07776 11.621 6.99465 14.5104 7 17.5C7 34.8688 21.1313 49 38.5 49C41.4897 49.0054 44.3791 47.9223 46.6285 45.953C48.878 43.9837 50.3337 41.2629 50.7238 38.2988C50.8154 37.5495 50.6624 36.7906 50.2875 36.1354C49.9126 35.4802 49.3359 34.9638 48.6434 34.6632ZM38.5 45.5C31.0764 45.4919 23.9592 42.5393 18.71 37.2901C13.4607 32.0408 10.5081 24.9236 10.5 17.5C10.4918 15.3639 11.2614 13.2978 12.6651 11.6877C14.0687 10.0775 16.0105 9.03325 18.1278 8.75005C18.127 8.75877 18.127 8.76757 18.1278 8.7763L22.7216 19.0575L18.2 24.4694C18.1541 24.5222 18.1124 24.5785 18.0753 24.6379C17.7461 25.143 17.553 25.7246 17.5147 26.3263C17.4764 26.928 17.5941 27.5294 17.8566 28.0722C19.8384 32.1257 23.9225 36.1791 28.0197 38.1588C28.5665 38.4188 29.1714 38.5325 29.7753 38.4888C30.3791 38.445 30.9613 38.2454 31.465 37.9094C31.5212 37.8716 31.5752 37.8307 31.6269 37.7869L36.9447 33.25L47.2259 37.8547C47.2259 37.8547 47.2434 37.8547 47.25 37.8547C46.9703 39.975 45.9276 41.9207 44.3171 43.3279C42.7066 44.735 40.6386 45.5073 38.5 45.5Z" fill="black"/>
</g>
</svg>
