<svg width="56" height="56" viewBox="0 0 56 56" fill="none" xmlns="http://www.w3.org/2000/svg">
<g id="WhatsappLogo">
<path id="Vector" d="M41.0331 31.6837L34.0331 28.1837C33.7576 28.0464 33.4507 27.9843 33.1434 28.0035C32.8362 28.0227 32.5394 28.1226 32.2831 28.2931L29.0697 30.4369C27.5946 29.6259 26.3806 28.412 25.5697 26.9369L27.7134 23.7234C27.884 23.4671 27.9839 23.1704 28.0031 22.8631C28.0223 22.5559 27.9601 22.249 27.8228 21.9734L24.3228 14.9734C24.1778 14.6805 23.9535 14.434 23.6755 14.2619C23.3975 14.0899 23.0769 13.9992 22.75 14C20.4294 14 18.2038 14.9219 16.5628 16.5628C14.9219 18.2038 14 20.4294 14 22.75C14.0058 27.8536 16.0358 32.7466 19.6446 36.3554C23.2534 39.9642 28.1464 41.9942 33.25 42C34.3991 42 35.5369 41.7737 36.5985 41.3339C37.6601 40.8942 38.6247 40.2497 39.4372 39.4372C40.2497 38.6247 40.8942 37.6601 41.334 36.5985C41.7737 35.5369 42 34.3991 42 33.25C42.0002 32.9249 41.9099 32.6061 41.7391 32.3295C41.5683 32.0528 41.3239 31.8292 41.0331 31.6837ZM33.25 38.5C29.0743 38.4954 25.0709 36.8345 22.1182 33.8818C19.1655 30.9291 17.5046 26.9257 17.5 22.75C17.4997 21.5362 17.9199 20.3598 18.6893 19.4209C19.4586 18.4821 20.5295 17.8388 21.7197 17.6006L24.2309 22.6319L22.0938 25.8125C21.9341 26.0521 21.8359 26.3273 21.8081 26.6139C21.7802 26.9005 21.8235 27.1895 21.9341 27.4553C23.1862 30.4312 25.5535 32.7985 28.5294 34.0506C28.796 34.1661 29.0872 34.2134 29.3767 34.1882C29.6662 34.163 29.9448 34.0661 30.1875 33.9062L33.3834 31.7756L38.4147 34.2869C38.1746 35.4784 37.5286 36.5498 36.5867 37.3181C35.6448 38.0865 34.4655 38.5042 33.25 38.5ZM28 5.25C24.0723 5.24914 20.2112 6.26519 16.7927 8.19925C13.3741 10.1333 10.5145 12.9195 8.49226 16.2866C6.46997 19.6537 5.35387 23.487 5.25261 27.4134C5.15134 31.3399 6.06835 35.2256 7.91438 38.6925L5.43157 46.1409C5.22591 46.7576 5.19606 47.4194 5.34538 48.0521C5.49469 48.6848 5.81726 49.2634 6.27693 49.7231C6.7366 50.1827 7.31521 50.5053 7.94791 50.6546C8.58061 50.8039 9.24238 50.7741 9.85907 50.5684L17.3075 48.0856C20.3586 49.7084 23.7392 50.6148 27.1929 50.736C30.6465 50.8572 34.0824 50.19 37.2397 48.785C40.397 47.3801 43.1928 45.2743 45.4147 42.6276C47.6367 39.9808 49.2265 36.8626 50.0634 33.5097C50.9004 30.1568 50.9624 26.6573 50.245 23.2768C49.5275 19.8963 48.0494 16.7237 45.9227 13.9998C43.796 11.2759 41.0768 9.07226 37.9713 7.55618C34.8658 6.0401 31.4558 5.25142 28 5.25ZM28 47.25C24.6159 47.2523 21.2912 46.3611 18.3619 44.6666C18.1474 44.5422 17.909 44.4648 17.6623 44.4395C17.4157 44.4143 17.1665 44.4417 16.9313 44.52L8.75001 47.25L11.4778 39.0688C11.5565 38.8337 11.5842 38.5846 11.5594 38.3379C11.5345 38.0913 11.4575 37.8528 11.3334 37.6381C9.21151 33.9695 8.35956 29.7031 8.90976 25.5009C9.45996 21.2987 11.3816 17.3955 14.3764 14.3968C17.3713 11.3981 21.2721 9.47159 25.4737 8.91608C29.6752 8.36057 33.9426 9.20713 37.6139 11.3244C41.2852 13.4417 44.1552 16.7114 45.7786 20.6263C47.402 24.5411 47.6881 28.8823 46.5925 32.9763C45.4969 37.0704 43.0809 40.6884 39.7192 43.2692C36.3575 45.85 32.2381 47.2493 28 47.25Z" fill="black"/>
</g>
</svg>
